# xmcd
#
# Track frame offsets:
#	150
#	22041
#	36270
#	60425
#	78715
#	105120
#	117377
#	145963
#	162045
#	185371
#	207820
#
# Disc length: 3033 seconds
#
# Revision: 18
# Processed by: cddbd v1.5.2PL0 Copyright (c) Steve Scherf et al.
# Submitted via: Jack! The Knife 20 Magnifico
#
DISCID=8c0bd70b
DTITLE=Yngwie Malmsteen - Magnum Opus
DYEAR=1995
DGENRE=Metal
TTITLE0=Vengeance
TTITLE1=No Love Lost
TTITLE2=Tomorrow's Gone
TTITLE3=The Only One
TTITLE4=I'd Die Without You
TTITLE5=Overture 1622
TTITLE6=Voodoo
TTITLE7=Cross The Line
TTITLE8=Time Will Tell
TTITLE9=Fire In The Sky
TTITLE10=Amberdawn
EXTD=Yngwie Malmsteen and Chris Tsangarides
EXTT0=Yngwie Malmsteen
EXTT1=Yngwie Malmsteen
EXTT2=Yngwie Malmsteen
EXTT3=Yngwie Malmsteen
EXTT4=Yngwie Malmsteen
EXTT5=Yngwie Malmsteen
EXTT6=Yngwie Malmsteen
EXTT7=Yngwie Malmsteen
EXTT8=Yngwie Malmsteen
EXTT9=Yngwie Malmsteen
EXTT10=Yngwie Malmsteen
PLAYORDER=
